<?xml version="1.0" encoding="UTF-8"?>
<svg width="64" height="64" xmlns="http://www.w3.org/2000/svg">
  <path d="M32 0c17.673 0 32 14.327 32 32 0 17.673-14.327 32-32 32C14.327 64 0 49.673 0 32 0 14.327 14.327 0 32 0zm.027 13.065c-10.457 0-18.935 8.478-18.935 18.935 0 4.56 1.618 8.744 4.31 12.012l2.178-2.604c-2.187-2.756-3.488-6.228-3.488-10.008 0-8.836 7.167-16.003 16.003-16.003 8.836 0 16.003 7.167 16.003 16.003 0 3.782-1.302 7.255-3.49 10.012l2.178 2.604c2.693-3.268 4.31-7.452 4.31-12.012 0-10.457-8.478-18.935-18.935-18.935h-.134zm.107 6.933c-6.635 0-12.002 5.367-12.002 12.002 0 3.236 1.281 6.173 3.363 8.335l2.287-2.735c-1.541-1.643-2.484-3.851-2.484-6.279 0-5.069 4.11-9.18 9.18-9.18 5.069 0 9.18 4.11 9.18 9.18 0 2.43-.944 4.639-2.487 6.282l2.287 2.735c2.083-2.162 3.363-5.1 3.363-8.335 0-6.635-5.367-12.002-12.002-12.002h-.685zm.342 6.934c-2.801 0-5.068 2.267-5.068 5.068 0 2.801 2.267 5.068 5.068 5.068 2.801 0 5.068-2.267 5.068-5.068 0-2.801-2.267-5.068-5.068-5.068zm-.027 13.5c-1.916 0-3.467 1.551-3.467 3.467v9.9c0 1.916 1.551 3.467 3.467 3.467 1.916 0 3.467-1.551 3.467-3.467v-9.9c0-1.916-1.551-3.467-3.467-3.467z" fill="#9933CC"/>
</svg>
